<mxfile host="app.diagrams.net" modified="2021-12-22T08:43:48.415Z" agent="5.0 (Windows NT 10.0; Win64; x64) AppleWebKit/537.36 (KHTML, like Gecko) Chrome/96.0.4664.110 Safari/537.36" etag="AiINuOGBnJdj5LcSlP4o" version="14.6.13" type="github">
  <diagram name="Page-1" id="5f0bae14-7c28-e335-631c-24af17079c00">
    <mxGraphModel dx="599" dy="332" grid="1" gridSize="10" guides="1" tooltips="1" connect="1" arrows="1" fold="1" page="1" pageScale="1" pageWidth="1100" pageHeight="850" background="none" math="0" shadow="0">
      <root>
        <mxCell id="0" />
        <mxCell id="1" parent="0" />
        <mxCell id="Wzl3ZhZQnECG-cAmuOxG-3" value="«UI»&lt;br&gt;로그인/회원가입 페이지" style="html=1;dropTarget=0;" vertex="1" parent="1">
          <mxGeometry x="50" y="290" width="180" height="90" as="geometry" />
        </mxCell>
        <mxCell id="Wzl3ZhZQnECG-cAmuOxG-4" value="" style="shape=module;jettyWidth=8;jettyHeight=4;" vertex="1" parent="Wzl3ZhZQnECG-cAmuOxG-3">
          <mxGeometry x="1" width="20" height="20" relative="1" as="geometry">
            <mxPoint x="-27" y="7" as="offset" />
          </mxGeometry>
        </mxCell>
        <mxCell id="Wzl3ZhZQnECG-cAmuOxG-14" value="" style="rounded=0;orthogonalLoop=1;jettySize=auto;html=1;endArrow=none;endFill=0;exitX=1;exitY=0.5;exitDx=0;exitDy=0;" edge="1" target="Wzl3ZhZQnECG-cAmuOxG-16" parent="1" source="Wzl3ZhZQnECG-cAmuOxG-3">
          <mxGeometry relative="1" as="geometry">
            <mxPoint x="170" y="385" as="sourcePoint" />
          </mxGeometry>
        </mxCell>
        <mxCell id="Wzl3ZhZQnECG-cAmuOxG-15" value="" style="rounded=0;orthogonalLoop=1;jettySize=auto;html=1;endArrow=halfCircle;endFill=0;entryX=0.5;entryY=0.5;entryDx=0;entryDy=0;endSize=6;strokeWidth=1;exitX=0;exitY=0.5;exitDx=0;exitDy=0;" edge="1" target="Wzl3ZhZQnECG-cAmuOxG-16" parent="1" source="Wzl3ZhZQnECG-cAmuOxG-17">
          <mxGeometry relative="1" as="geometry">
            <mxPoint x="350" y="240" as="sourcePoint" />
          </mxGeometry>
        </mxCell>
        <mxCell id="Wzl3ZhZQnECG-cAmuOxG-16" value="" style="ellipse;whiteSpace=wrap;html=1;fontFamily=Helvetica;fontSize=12;fontColor=#000000;align=center;strokeColor=#000000;fillColor=#ffffff;points=[];aspect=fixed;resizable=0;" vertex="1" parent="1">
          <mxGeometry x="290" y="260" width="10" height="10" as="geometry" />
        </mxCell>
        <mxCell id="Wzl3ZhZQnECG-cAmuOxG-26" style="edgeStyle=orthogonalEdgeStyle;rounded=0;orthogonalLoop=1;jettySize=auto;html=1;exitX=0.5;exitY=1;exitDx=0;exitDy=0;entryX=0.5;entryY=0;entryDx=0;entryDy=0;endArrow=open;endFill=0;dashed=1;" edge="1" parent="1" source="Wzl3ZhZQnECG-cAmuOxG-17" target="Wzl3ZhZQnECG-cAmuOxG-24">
          <mxGeometry relative="1" as="geometry" />
        </mxCell>
        <mxCell id="Wzl3ZhZQnECG-cAmuOxG-17" value="«컴포넌트»&lt;br&gt;사용자 입증" style="html=1;dropTarget=0;" vertex="1" parent="1">
          <mxGeometry x="370" y="140" width="180" height="90" as="geometry" />
        </mxCell>
        <mxCell id="Wzl3ZhZQnECG-cAmuOxG-18" value="" style="shape=module;jettyWidth=8;jettyHeight=4;" vertex="1" parent="Wzl3ZhZQnECG-cAmuOxG-17">
          <mxGeometry x="1" width="20" height="20" relative="1" as="geometry">
            <mxPoint x="-27" y="7" as="offset" />
          </mxGeometry>
        </mxCell>
        <mxCell id="Wzl3ZhZQnECG-cAmuOxG-19" value="" style="rounded=0;orthogonalLoop=1;jettySize=auto;html=1;endArrow=none;endFill=0;exitX=1;exitY=0.5;exitDx=0;exitDy=0;" edge="1" target="Wzl3ZhZQnECG-cAmuOxG-21" parent="1" source="Wzl3ZhZQnECG-cAmuOxG-3">
          <mxGeometry relative="1" as="geometry">
            <mxPoint x="240" y="295" as="sourcePoint" />
          </mxGeometry>
        </mxCell>
        <mxCell id="Wzl3ZhZQnECG-cAmuOxG-20" value="" style="rounded=0;orthogonalLoop=1;jettySize=auto;html=1;endArrow=halfCircle;endFill=0;entryX=0.5;entryY=0.5;entryDx=0;entryDy=0;endSize=6;strokeWidth=1;exitX=0;exitY=0.5;exitDx=0;exitDy=0;" edge="1" target="Wzl3ZhZQnECG-cAmuOxG-21" parent="1" source="Wzl3ZhZQnECG-cAmuOxG-22">
          <mxGeometry relative="1" as="geometry">
            <mxPoint x="360" y="452.2857142857143" as="sourcePoint" />
          </mxGeometry>
        </mxCell>
        <mxCell id="Wzl3ZhZQnECG-cAmuOxG-21" value="" style="ellipse;whiteSpace=wrap;html=1;fontFamily=Helvetica;fontSize=12;fontColor=#000000;align=center;strokeColor=#000000;fillColor=#ffffff;points=[];aspect=fixed;resizable=0;direction=south;" vertex="1" parent="1">
          <mxGeometry x="290" y="390" width="10" height="10" as="geometry" />
        </mxCell>
        <mxCell id="Wzl3ZhZQnECG-cAmuOxG-27" style="edgeStyle=orthogonalEdgeStyle;rounded=0;orthogonalLoop=1;jettySize=auto;html=1;exitX=0.5;exitY=0;exitDx=0;exitDy=0;entryX=0.5;entryY=1;entryDx=0;entryDy=0;dashed=1;endArrow=open;endFill=0;" edge="1" parent="1" source="Wzl3ZhZQnECG-cAmuOxG-22" target="Wzl3ZhZQnECG-cAmuOxG-24">
          <mxGeometry relative="1" as="geometry" />
        </mxCell>
        <mxCell id="Wzl3ZhZQnECG-cAmuOxG-22" value="&amp;laquo;Annotation&amp;raquo;&lt;br/&gt;&lt;b&gt;Component&lt;/b&gt;" style="html=1;dropTarget=0;" vertex="1" parent="1">
          <mxGeometry x="370" y="410" width="180" height="90" as="geometry" />
        </mxCell>
        <mxCell id="Wzl3ZhZQnECG-cAmuOxG-23" value="" style="shape=module;jettyWidth=8;jettyHeight=4;" vertex="1" parent="Wzl3ZhZQnECG-cAmuOxG-22">
          <mxGeometry x="1" width="20" height="20" relative="1" as="geometry">
            <mxPoint x="-27" y="7" as="offset" />
          </mxGeometry>
        </mxCell>
        <mxCell id="Wzl3ZhZQnECG-cAmuOxG-24" value="&amp;laquo;Annotation&amp;raquo;&lt;br/&gt;&lt;b&gt;Component&lt;/b&gt;" style="html=1;dropTarget=0;" vertex="1" parent="1">
          <mxGeometry x="370" y="280" width="180" height="90" as="geometry" />
        </mxCell>
        <mxCell id="Wzl3ZhZQnECG-cAmuOxG-25" value="" style="shape=module;jettyWidth=8;jettyHeight=4;" vertex="1" parent="Wzl3ZhZQnECG-cAmuOxG-24">
          <mxGeometry x="1" width="20" height="20" relative="1" as="geometry">
            <mxPoint x="-27" y="7" as="offset" />
          </mxGeometry>
        </mxCell>
      </root>
    </mxGraphModel>
  </diagram>
</mxfile>
